<?xml version="1.0" encoding="utf-8"?>
<!-- Generator: Adobe Illustrator 19.0.0, SVG Export Plug-In . SVG Version: 6.00 Build 0)  -->
<svg version="1.1" id="Layer_1" xmlns="http://www.w3.org/2000/svg" xmlns:xlink="http://www.w3.org/1999/xlink" x="0px" y="0px"
	 viewBox="0 0 207.8 128.7" style="enable-background:new 0 0 207.8 128.7;" xml:space="preserve">
<style type="text/css">
	.st0{fill:#99D384;}
	.st1{fill:#FFFFFF;}
	.st2{fill:#FCF3E0;}
	.st3{fill:#DD95C0;}
	.st4{fill:#62BA47;}
	.st5{fill:#62BA46;}
</style>
<g>
	<g>
		<path id="XMLID_80_" class="st0" d="M22,28.3c0,0,91.8,14.6,166.8-7.7c0,0-14.5,32.8,3.7,82.7c0,0-86.8-18.1-166.8,5.4
			C25.7,108.8,36.6,58.3,22,28.3z"/>
		<path id="XMLID_90_" class="st1" d="M192.6,104.6c-0.1,0-0.2,0-0.3,0c-0.9-0.2-87.4-17.8-166.2,5.3c-0.5,0.2-0.9,0-1.2-0.3
			s-0.5-0.8-0.3-1.2c0.1-0.5,10.7-50.4-3.5-79.7c-0.2-0.4-0.2-0.9,0.1-1.3c0.2-0.3,0.7-0.6,1.2-0.5c0.9,0.1,92.4,14.2,166.2-7.5
			c0.5-0.2,0.9,0,1.3,0.3c0.3,0.3,0.4,0.9,0.2,1.3c-0.1,0.4-14,32.9,3.9,81.8c0.2,0.5,0.1,0.9-0.2,1.3
			C193.3,104.5,192.9,104.7,192.6,104.6z M98.9,95.9c45.1-2.1,82.4,4.1,91.7,5.8c-14.4-41.2-6.7-70.8-3.9-79.2
			c-67.3,19.1-148.1,9.3-162.6,7.3c3.9,9.1,7.9,24.8,6.4,50c-0.7,12.5-2.4,22.9-3.3,27.1C51.4,100.1,76.1,97,98.9,95.9z"/>
	</g>
	<g>
		<path id="XMLID_77_" class="st2" d="M158.9,82.6l-97.7,4.5c-8.4,0.4-15.6-6.2-16-14.6l-0.4-9.1c-0.4-8.4,6.2-15.6,14.6-16
			l97.7-4.5c8.4-0.4,15.6,6.2,16,14.6l0.4,9.1C174,75,167.4,82.1,158.9,82.6z"/>
		<path id="XMLID_76_" class="st1" d="M67.6,60.3L60,60.7c-1.5,0-2.7-1-2.7-2.5l0-0.5c0-1.5,1-2.7,2.5-2.7l7.6-0.3
			c1.5,0,2.7,1,2.7,2.5l0,0.5C70.2,59,69,60.3,67.6,60.3z"/>
	</g>
	<g>
		<g>
			
				<ellipse id="XMLID_75_" transform="matrix(-4.569542e-02 -0.999 0.999 -4.569542e-02 48.7515 174.3307)" class="st1" cx="107.6" cy="63.9" rx="25.8" ry="26"/>
		</g>
		<g>
			<path id="XMLID_89_" class="st3" d="M110.3,51.9c-0.1,1-1,1.9-2.1,1.9c-1.2,0.1-2.2-0.9-2.3-2.1c-6.1,0.9-10.8,6.3-10.5,12.8
				c0.1,1.3,0.3,2.4,0.7,3.5c0,0,0.1,0,0.1-0.1c1.2-0.1,2.2,0.9,2.3,2.1c0,0.5-0.1,1-0.5,1.4c2.2,2.8,5.5,4.5,9.2,4.6
				c0.9,0.1,3-0.1,4.1-0.5c3-0.9,5.4-2.9,7-5.4c-0.1-0.3-0.2-0.6-0.3-1c-0.1-1,0.7-1.9,1.6-2.1c0.3-1.3,0.4-2.5,0.5-3.9
				C119.7,57.7,115.6,53.1,110.3,51.9z M97.7,61.1c-0.6,0-1.2-0.4-1.2-1.1c0-0.6,0.5-1.2,1.2-1.2c0.6,0,1.2,0.4,1.2,1.2
				C98.9,60.5,98.4,61,97.7,61.1z M117.3,64.3c-0.8,0.1-1.5-0.6-1.5-1.4c-0.1-0.8,0.6-1.5,1.4-1.5c0.8-0.1,1.5,0.6,1.5,1.4
				C118.7,63.6,118.2,64.3,117.3,64.3z"/>
			<g>
				<ellipse id="XMLID_71_" class="st4" cx="98.3" cy="75.4" rx="3.9" ry="3.9"/>
				<path id="XMLID_70_" class="st1" d="M95.7,75.2c0.2-0.2,0.2-0.3,0.4-0.5c0-0.1,0.1-0.2,0.2-0.3c0-0.1,0-0.1,0,0s0,0.2,0,0.3
					c0.1,0.7,0,1.4,0,2c0,0.2,0.4-0.1,0.4-0.3c0-0.4,0-0.9,0-1.4c0-0.2,0.1-1.2-0.2-1.3c-0.5-0.1-0.9,1-1.1,1.2
					C95.2,75.4,95.6,75.5,95.7,75.2L95.7,75.2z"/>
				<path id="XMLID_69_" class="st1" d="M97.8,75.1c-0.2-0.1-0.7-0.5-0.3-0.7c0.1-0.1,0.3-0.1,0.4-0.1c0.4,0.1,0.1,0.3-0.1,0.5
					c-0.1,0.1-0.6,0.5-0.4,0.7c0.3,0.2,0.9,0,0.9,0.4c0,0.3-0.5,0.3-0.7,0.3c-0.3-0.2-0.3-0.5,0-0.7C97.8,75.4,98,74.9,97.8,75.1
					c-0.5,0.2-0.9,0.7-0.8,1.1c0,0.3,0.3,0.6,0.6,0.6c0.4,0,0.9-0.3,1.1-0.7c0.2-0.3,0.2-0.8-0.2-0.8c-0.1,0-0.5-0.1-0.5,0
					c0.2-0.2,0.4-0.3,0.5-0.6c0.3-0.4,0.2-0.8-0.3-0.9c-0.4,0-0.8,0.2-1,0.6c-0.3,0.4,0,0.9,0.5,1C97.6,75.7,98,75.3,97.8,75.1
					L97.8,75.1z"/>
				<g>
					<path id="XMLID_68_" class="st1" d="M100.7,74.1c-0.5,0.9-1.1,1.6-1.6,2.4c-0.2,0.3,0.2,0.3,0.3,0.1c0.6-0.8,1.2-1.7,1.6-2.6
						C101.4,73.7,100.9,73.8,100.7,74.1L100.7,74.1z"/>
					<path id="XMLID_67_" class="st1" d="M99.8,73.9c-0.3,0-0.5,0.3-0.5,0.7c0,0.3,0.2,0.5,0.4,0.4C100.3,75,100.5,73.9,99.8,73.9
						c-0.1,0-0.3,0.3-0.1,0.4c0.1,0,0.3,0.1,0.2,0.3c0,0,0,0.1-0.1,0.2l0,0c0,0,0,0-0.1,0c-0.1,0.1-0.3-0.1-0.3-0.2
						c0-0.1,0-0.1,0.1-0.2l0,0c0,0,0,0,0.1,0C99.8,74.2,100,73.9,99.8,73.9z"/>
					<path id="XMLID_66_" class="st1" d="M100.8,75.6c-0.3,0-0.5,0.3-0.5,0.7c0,0.3,0.2,0.5,0.4,0.4
						C101.2,76.7,101.4,75.6,100.8,75.6c-0.1,0-0.3,0.3-0.1,0.4c0.1,0,0.3,0.1,0.2,0.3c0,0,0,0.1-0.1,0.2l0,0c0,0,0,0-0.1,0
						c-0.1,0.1-0.3-0.1-0.3-0.2c0-0.1,0-0.1,0.1-0.2l0,0c0,0,0,0,0.1,0C100.7,75.9,100.9,75.5,100.8,75.6z"/>
				</g>
			</g>
			<path id="XMLID_65_" class="st3" d="M100.9,49.2c0,0.9-0.7,1.6-1.5,1.6c-0.9,0-1.6-0.7-1.7-1.5c0-0.9,0.7-1.6,1.5-1.7
				C100.2,47.6,100.9,48.3,100.9,49.2L100.9,49.2z"/>
			<path id="XMLID_64_" class="st4" d="M101.3,54.5c0,1.1-0.8,2-1.9,2.1c-1.1,0-2-0.8-2.1-1.9s0.8-2,1.9-2.1
				C100.3,52.5,101.2,53.4,101.3,54.5L101.3,54.5z"/>
			<path id="XMLID_63_" class="st4" d="M95.7,51.6c0,0.6-0.5,1.2-1.2,1.3c-0.6,0-1.2-0.5-1.3-1.2c0-0.6,0.5-1.2,1.2-1.3
				C95.1,50.4,95.6,50.9,95.7,51.6L95.7,51.6z"/>
			<g>
				<ellipse id="XMLID_62_" class="st4" cx="117.6" cy="52.3" rx="6.8" ry="6.8"/>
				<g>
					<path id="XMLID_88_" class="st1" d="M115.8,51.4c-0.6,0.1-0.7,0.7-0.6,1.3l0,0l0,0c0,0.1,0,0.1,0,0.2c0,0.2,0,0.4,0,0.6
						c0,0.1,0,0.3-0.1,0.3c-0.2,0-0.3-0.2-0.5-0.4c-0.2-0.4-0.3-0.7-0.4-1.1c-0.1-0.3-0.1-0.8-0.2-1.2c-0.1-0.1,0-0.3,0-0.5
						c0-0.1,0-0.1,0-0.2l0-0.1c0-0.3-0.4,0-0.5,0.2c-0.4,0.8-0.3,1.7-0.2,2.6c0,0.2,0.1,0.4,0,0.7c-0.1,0.2,0,0.4-0.2,0.6
						c0,0.1-0.2,0-0.3,0c-0.1,0-0.2-0.2-0.2-0.3c-0.1-0.1-0.2-0.1-0.2,0c-0.1,0.1-0.2,0.3-0.1,0.4c0.1,0.3,0.3,0.5,0.7,0.5
						c0.5-0.2,0.7-0.8,0.7-1.2c0.1-0.2,0.1-0.5,0-0.7c0.1,0.3,0.2,0.7,0.4,1c0.1,0.3,0.4,0.4,0.6,0.4c0.2,0,0.3-0.3,0.4-0.6
						c0.1,0.3,0.3,0.4,0.5,0.4c0.3,0,0.5-0.3,0.6-0.5c0.1-0.3,0.1-0.6,0.1-0.9C116.6,52.2,116.4,51.3,115.8,51.4z M116.1,53.4
						c0,0.1,0,0.1-0.1,0.2c-0.1,0-0.2-0.2-0.3-0.2c-0.2-0.2-0.2-0.4-0.2-0.6c0-0.2-0.1-0.4,0-0.6c0-0.1,0-0.1,0.1-0.2
						c0.3,0.2,0.3,0.5,0.5,0.8C116.1,52.9,116.2,53.1,116.1,53.4z"/>
					<path id="XMLID_87_" class="st1" d="M122.6,51.9c-0.7-0.2-1,0.6-1,1.1c0,0.4-0.2,1.2,0.4,1.4c0.3,0.1,0.6-0.1,0.7-0.3
						c0.2-0.3,0.3-0.5,0.4-0.7C123.1,52.9,123.2,52,122.6,51.9z M122.3,53.9c0,0.1,0,0.1-0.1,0.2c-0.1,0-0.1-0.3-0.2-0.4
						c0-0.2-0.1-0.4,0-0.6c0.1-0.2,0-0.4,0.2-0.6c0-0.1,0-0.1,0.1-0.2c0.2,0.3,0.2,0.6,0.2,1C122.5,53.4,122.4,53.7,122.3,53.9z"/>
					<path id="XMLID_86_" class="st1" d="M121,52c0.1-0.2,0.2-0.3,0.3-0.5c0.2-0.3,0.4-0.8,0.4-1.1c-0.1-0.4-0.6-0.4-0.9-0.3
						c-0.4,0.2-0.5,0.7-0.7,1c-0.1,0.5-0.2,1.1-0.1,1.6l0,0c-0.2,0.3-0.6,0.8-0.9,0.5c-0.1,0-0.2-0.2-0.1-0.3
						c0.2-0.3,0.4-0.6,0.6-0.8s0.3-0.8-0.1-1c-0.3-0.1-0.7,0.1-0.9,0.3c-0.2,0.3-0.3,0.5-0.3,0.9c-0.1,0.2,0,0.4,0.1,0.8
						c-0.2,0.2-0.4,0.2-0.6,0.2c-0.2-0.1-0.3-0.3-0.4-0.4c-0.1-0.3-0.1-0.6,0-0.9c0-0.1,0.1-0.2,0.1-0.3c0,0,0,0,0-0.1
						c0.2,0.1,0.2,0.3,0.3,0.4c0,0.2,0.6-0.1,0.5-0.3c0-0.2-0.2-0.4-0.4-0.4c-0.2-0.1-0.5,0.2-0.6,0.2c-0.4,0.4-0.3,0.9-0.3,1.4
						c0,0.3,0.1,0.7,0.4,0.9s0.9,0,1.2-0.2c0.1,0.3,0.3,0.4,0.6,0.3c0.3-0.1,0.7-0.3,0.9-0.5c0,0.3,0.1,0.6,0.3,0.6
						c0.3,0.2,0.8-0.1,1-0.3c0.2-0.3,0.4-0.8,0.2-1.3C121.4,52.2,121.2,52.1,121,52z M118.9,51.9c0-0.1,0.1-0.2,0.1-0.2l0,0
						c0.1,0,0.2,0.2,0.2,0.4c0,0.2-0.2,0.5-0.3,0.6l0-0.1C118.9,52.3,118.8,52.1,118.9,51.9z M120.8,50.7c0-0.1,0.1-0.2,0.2-0.3l0,0
						c0.2,0.3,0.1,0.7-0.1,0.9c-0.1,0.3-0.3,0.5-0.4,0.7c0-0.2,0.1-0.5,0.1-0.7C120.6,51.2,120.7,50.9,120.8,50.7z M120.9,53.5
						L120.9,53.5c0,0.1,0,0.1-0.1,0.1c-0.2-0.1-0.2-0.4-0.2-0.5c-0.1-0.1,0-0.2,0-0.3c0-0.1,0.2-0.2,0.2-0.3
						c0.1-0.1,0.2,0.1,0.3,0.2C121,53,121,53.3,120.9,53.5z"/>
				</g>
			</g>
			<g>
				<g>
					<path id="XMLID_85_" class="st1" d="M113,62.1c0.2-0.6,0.3-1.4-0.2-1.8c-0.3-0.3-0.8-0.3-1.1-0.2c0-0.2,0.1-0.5,0-0.7
						c0-0.2-0.5-0.2-0.5-0.1c-0.2,0-0.5,0.2-0.4,0.4c0,0.9-0.1,1.9-0.2,2.8c-0.3,0.1-0.4,0.2-0.6,0.3c-0.1,0.1-0.3,0.1-0.3,0.1
						c-0.3-0.1-0.3-0.4-0.3-0.6c-0.1-0.8,0-1.7,0.4-2.4c0.1-0.2-0.1-0.3-0.3-0.2c-0.3,0-0.6,0.2-0.7,0.4c-0.4,0.9-0.4,2-0.2,3
						c0.1,0.3,0.1,0.6,0.6,0.6s1-0.3,1.3-0.5c0,0.1,0,0.1-0.1,0.2c-0.2,0.9-0.4,1.7-0.6,2.6c-0.1,0.2,0.2,0.2,0.3,0.2
						c0.1-0.1,0.3-0.2,0.4-0.4c0.2-0.6,0.3-1.2,0.5-1.7c0.2,0.1,0.5,0.1,0.8-0.1C112.5,63.4,112.9,62.8,113,62.1z M111.8,60.5
						C111.9,60.5,111.9,60.5,111.8,60.5L111.8,60.5z M111.6,63.3L111.6,63.3L111.6,63.3z M111.6,63.2
						C111.6,63.2,111.6,63.3,111.6,63.2C111.6,63.3,111.6,63.3,111.6,63.2c-0.3,0-0.4-0.4-0.3-0.5c0,0,0,0,0-0.1
						c0.2-0.5,0.2-1,0.3-1.6l0,0c0.1-0.2,0.1-0.3,0.2-0.5l0,0l0,0c0.1,0,0.2,0.2,0.2,0.3c0.2,0.4,0.1,0.9,0.1,1.2
						C112,62.5,111.9,62.9,111.6,63.2z"/>
					<path id="XMLID_84_" class="st1" d="M107.3,60.3L107.3,60.3C107.2,60.3,107.2,60.3,107.3,60.3c-0.3,0-0.5,0-0.7,0.2
						c0-0.3-0.1-0.7-0.2-1c-0.1-0.1-0.3,0-0.4,0.1c-0.3,0.1-0.4,0.4-0.5,0.6c0,0.4-0.1,0.8-0.1,1.2c0,0.3-0.1,0.7-0.1,1
						c0,0.1-0.1,0.3-0.1,0.4c0,0.1,0,0.1-0.1,0.2c-0.2,0.2-0.4,0.3-0.7,0.2c-0.3-0.1-0.4-0.3-0.7-0.5c-0.5-0.5-0.9-1.1-0.9-1.9
						c-0.1-0.3-0.1-0.7,0-1.1c0-0.1,0-0.3,0-0.4c0-0.1,0-0.1,0.1-0.2l0-0.1l0,0l0,0l0,0l0,0c0,0,0,0,0-0.1c0,0,0.3-0.1,0.3-0.1
						c0.6-0.1,0.9,0.3,1,0.7c0.1,0.3,1-0.5,0.9-0.7c-0.2-0.6-0.8-0.9-1.5-0.8c-0.6,0.1-1,0.4-1.3,0.7c-0.6,0.8-0.8,2-0.5,2.9
						c0.2,0.9,0.8,1.7,1.6,2.2c0.3,0.2,0.7,0.2,1,0.2c0.7-0.2,1.2-1.1,1.4-1.7l0-0.1l0,0c0.1,0.7,0.5,1.2,1.2,1.3
						c0.8-0.1,1.1-1,1.2-1.6C108.4,61.1,108.1,60.4,107.3,60.3z M107.6,62.5C107.6,62.6,107.6,62.6,107.6,62.5c0,0.1,0,0.1-0.1,0.1
						c-0.4,0.1-0.7-0.5-0.7-0.9c0,0,0-0.1-0.1-0.1l0,0c0-0.1,0-0.1,0-0.2c0-0.1,0-0.2,0-0.4c0,0,0-0.1,0.1-0.2l0,0
						c0.4-0.1,0.7,0.5,0.7,0.9C107.6,62.1,107.7,62.3,107.6,62.5z"/>
				</g>
			</g>
			<g>
				<g>
					<path id="XMLID_83_" class="st1" d="M107.7,68c-0.1,0.1-0.2-0.4-0.2-0.5c-0.1-0.4-0.1-0.8-0.1-1.2l0,0c0-0.3-0.3-0.4-0.5-0.3
						c-0.3,0.1-0.4,0.4-0.6,0.5c-0.2,0.5-0.2,1-0.1,1.5c0,0,0,0,0,0.1c0,0.1-0.1,0.1-0.2,0.2c-0.2,0-0.3-0.5-0.4-0.7
						c-0.1-0.4-0.1-0.9-0.2-1.3c-0.1-0.1-0.2-0.1-0.2,0c-0.1,0.1-0.3,0.2-0.2,0.3c0.1,0.4,0.1,0.8,0.1,1.2c0,0.2,0,0.3-0.1,0.5l0,0
						l-0.1,0c-0.3-0.1-0.4-0.6-0.5-0.8c-0.1-0.3-0.1-0.7,0-1.1l0-0.1c0-0.1-0.1-0.1-0.2-0.1c-0.1,0.1-0.3,0.2-0.2,0.3
						c-0.1,0.2-0.2,0.2-0.4,0.2c-0.1,0-0.2-0.1-0.3-0.1l-0.1,0c-0.1,0-0.2-0.1-0.3-0.1l0,0l0,0c-0.6,0.2-0.5,1-0.4,1.4
						c0.1,0.1,0.1,0.4,0.2,0.6c0,0.1-0.2,0.2-0.4,0.2c-0.1,0-0.2-0.2-0.3-0.2c-0.2-0.3-0.3-0.6-0.4-0.9c-0.2-0.6-0.3-1.2-0.5-1.7
						c0-0.1-0.1,0-0.2-0.1c-0.1,0.1-0.2,0.3-0.2,0.3c0,0.4,0,0.9,0.1,1.3l0,0l-0.1-0.1c-0.1-0.3-0.3-0.6-0.4-1
						c0-0.2-0.2-0.5-0.2-0.7c0-0.3-0.3,0.1-0.4,0.2c-0.3,0.9,0.1,1.7,0.4,2.6c0,0.2,0.1,0.4,0.1,0.7c0.1,0.1,0.1,0.4-0.1,0.6
						c0,0.1-0.2,0-0.3,0c-0.1,0-0.3-0.2-0.2-0.3c-0.1-0.1-0.2-0.1-0.2,0c0,0.1-0.2,0.3-0.1,0.4c0.1,0.3,0.5,0.5,0.8,0.4
						c0.5-0.2,0.6-0.8,0.6-1.3c0-0.3,0-0.5-0.1-0.9c0.2,0.5,0.4,1,0.6,1.5c0.1,0.3,0.4-0.2,0.4-0.4c-0.1-0.3-0.2-0.7-0.2-1.1
						c0.1,0.1,0.1,0.3,0.1,0.3c0.1,0.3,0.3,0.6,0.6,0.8c0.1,0,0.3,0,0.4,0c0.1-0.1,0.3-0.2,0.4-0.4c0.1,0.1,0.3,0.2,0.4,0.1
						c0.2,0,0.4-0.4,0.4-0.6c0.1-0.3,0-0.6,0-0.9c0-0.1,0-0.2-0.1-0.3l0,0c0.2,0,0.3-0.1,0.5-0.2c0,0.3,0,0.6,0.1,0.9
						c0.1,0.3,0.2,0.8,0.7,0.8c0.3,0,0.5-0.2,0.6-0.4c0.1,0.1,0.2,0.2,0.3,0.2c-0.2,0.3-0.3,0.6-0.1,0.8c0.2,0.2,0.5-0.2,0.4-0.4
						c-0.2-0.2-0.1-0.3,0-0.4l0,0c0.1-0.1,0.3-0.2,0.3-0.3l0,0c0.1,0.1,0.1,0.3,0.2,0.3c0.2,0.1,0.5-0.2,0.6-0.3l0,0
						c0.1,0.1,0.1,0.1,0.1,0.3c0.2,0.2,0.4-0.1,0.5-0.2C107.6,68.1,107.8,68,107.7,68C107.8,67.9,107.7,67.9,107.7,68z M103.3,68.7
						L103.3,68.7L103.3,68.7z M103.3,68.5c0,0.1,0,0.1-0.1,0.2c-0.1,0-0.2-0.2-0.3-0.2c-0.2-0.2-0.2-0.4-0.2-0.5
						c0-0.2-0.1-0.4-0.1-0.7c0,0,0-0.1,0.1-0.2c0.2,0,0.4,0.6,0.5,0.8C103.3,68.1,103.3,68.3,103.3,68.5z M105,68.4L105,68.4
						L105,68.4z M106.9,68.1C106.9,68.1,106.8,68.1,106.9,68.1c-0.2-0.1-0.3-0.2-0.2-0.3c-0.1-0.3-0.2-0.7-0.1-1
						c0-0.1,0.1-0.3,0.1-0.3l0,0c0,0,0,0,0.1,0c0.1-0.1,0.2,0.1,0.2,0.2C107,67.2,107.1,67.6,106.9,68.1C107,68,107,68,106.9,68.1z"
						/>
					<path id="XMLID_82_" class="st1" d="M116.3,69.4c-0.1-0.1-0.2-0.1-0.3-0.1c-0.2-0.1-0.1-0.4,0-0.5c0.1-0.4,0.3-0.8,0.4-1.1l0,0
						c0.1-0.3-0.2-0.5-0.5-0.5c-0.3,0-0.6,0.1-0.7,0.3c-0.3,0.3-0.5,0.9-0.6,1.3c-0.1,0.1-0.2,0-0.4,0.1c-0.1,0-0.2-0.2-0.1-0.3
						c0-0.6,0.1-1.2,0.3-1.8c0-0.1-0.1-0.1-0.2-0.2c-0.1,0.1-0.3,0.1-0.4,0.2c-0.2,0.3-0.4,0.8-0.5,1.2c0,0.1-0.1,0.2-0.1,0.4l0,0.1
						c-0.1,0-0.2-0.2-0.1-0.3c0.1-0.2-0.3-0.1-0.4,0.1c0,0,0,0-0.1,0l-0.1-0.1c-0.1-0.1,0-0.3,0-0.5c-0.1-0.4,0.1-0.9,0.2-1.4
						c0-0.1-0.1-0.1-0.2-0.2c-0.1,0.1-0.3,0.1-0.4,0.2c-0.2,0.3-0.4,0.8-0.4,1.2c0,0.1-0.1,0.2-0.1,0.4l0,0.1
						c-0.1,0-0.2-0.2-0.2-0.2l0,0c-0.1-0.1-0.3-0.1-0.4,0.1c-0.1,0.1-0.3,0.1-0.4,0.1c-0.1,0-0.2-0.2-0.1-0.3c0.3-0.3,0.6-0.6,0.8-1
						c0.1-0.2,0.2-0.5-0.1-0.8c-0.3-0.3-0.7,0-0.9,0.2c-0.4,0.2-0.7,0-1-0.2c-0.1,0-0.1-0.1-0.2-0.2c-0.2-0.1-0.4,0-0.6,0.1
						c-0.1-0.1,0-0.3-0.1-0.4c-0.1-0.1-0.2,0-0.3,0c-0.1,0.1-0.2,0.3-0.2,0.3c0.1,0.8,0.2,1.6,0.2,2.3c0,0.5,0,1.2-0.1,1.7
						c0,0.1,0.1,0.1,0.2,0.1c0.1-0.1,0.2-0.2,0.2-0.3c0-0.4,0.1-0.8,0.1-1.1c0.1-0.1,0.3-0.1,0.5-0.2c0.3-0.3,0.4-0.8,0.4-1.2
						c0-0.1,0-0.1,0-0.2l0,0c0.2,0.1,0.4,0,0.5,0c-0.1,0.4-0.2,0.9,0,1.4c0.1,0.1,0.1,0.3,0.3,0.4c0.2,0.1,0.4-0.1,0.7-0.1
						c0.1,0.1,0.2,0.2,0.3,0.2c0.3,0.1,0.5,0,0.6-0.3c0-0.1,0.2-0.2,0.2-0.3c0,0,0,0.1,0.1,0.1c0.1,0.1,0,0.3,0.2,0.5s0.3,0.1,0.4,0
						l0,0c0.1,0.1,0.2,0.2,0.3,0.2c0.2,0.1,0.4-0.1,0.6-0.2c0-0.1,0.2-0.2,0.2-0.3c-0.1,0.2,0,0.3,0.1,0.4c0.1,0.3,0.5,0.3,0.9,0.1
						c0,0.1,0,0.2,0.1,0.3c0.2,0.2,0.5,0.1,0.6,0l0,0c0,0.1,0,0.2,0,0.2c0.2,0.2,0.4,0.1,0.6,0.1C116.1,69.7,116.4,69.6,116.3,69.4z
						 M108.5,66.3L108.5,66.3L108.5,66.3z M108.8,68L108.8,68L108.8,68z M108.8,68L108.8,68L108.8,68c-0.2,0-0.3-0.1-0.3-0.3l0,0
						c0-0.3,0-0.6-0.1-1l0,0c0-0.1,0-0.2,0-0.3l0,0l0,0c0.1,0,0.1,0,0.2,0.1c0.2,0.2,0.2,0.5,0.2,0.7
						C108.9,67.4,108.9,67.7,108.8,68z M110.6,66.9c-0.1,0.2-0.2,0.3-0.3,0.4c0-0.2,0.1-0.5,0.1-0.7c0-0.1,0.1-0.2,0.1-0.2
						s0,0,0-0.1l0.1,0C110.7,66.6,110.6,66.8,110.6,66.9z M115.3,69.1C115.3,69.1,115.2,69.1,115.3,69.1c-0.2-0.1-0.1-0.3-0.1-0.3
						l0,0l0,0c0-0.3,0.1-0.7,0.3-0.9c0-0.1,0.2-0.3,0.2-0.3l0,0l0.1,0c0.1,0,0.2,0.2,0.1,0.3C115.7,68.3,115.6,68.7,115.3,69.1
						C115.3,69,115.3,69.1,115.3,69.1z"/>
				</g>
			</g>
			<g>
				<path id="XMLID_36_" class="st5" d="M92.2,59.5c-0.1,0-0.2-0.2-0.2-0.2c-0.3-0.1-0.4,0.1-0.7,0.1c-0.5,0-0.8,0.1-1.5-0.1
					c0-0.6,0.3-0.9,0.4-1.4c0.1-0.4-0.1-0.9-0.1-1.4c0-0.3,0-0.5,0-0.9c-0.2,0.2,0,0.7-0.1,1c-0.1-0.3-0.1-0.9-0.2-1.1
					c-0.1,0.4,0,0.9,0,1.2c-0.1-0.3-0.2-0.7-0.3-1c-0.1,0.4,0.1,0.8,0.1,1.1c-0.1-0.3-0.2-0.6-0.4-0.9c0,0.4,0.2,0.7,0.2,1
					c-0.1-0.3-0.2-0.5-0.4-0.7c0,0.2,0.2,0.6,0.3,0.7c-0.2-0.1-0.2-0.3-0.4-0.4c0,0.2,0.2,0.3,0.3,0.4c-0.1,0-0.2-0.2-0.3-0.2
					c0,0.2,0.2,0.2,0.2,0.4c-0.1,0-0.2-0.2-0.3-0.2c0.1,0.1,0.3,0.2,0.2,0.3c0,0-0.1,0-0.1,0.1c0,0,0.2,0.1,0.1,0.1l-0.1,0
					c0,0.1,0.1,0,0.1,0.1c0,0,0,0-0.1,0c0,0.1,0.1,0,0.1,0.1c-0.5,0.6-0.2,1.1-0.2,1.7c0-0.1-0.5-0.2-0.8-0.3
					c-0.2-0.1-0.2-0.3-0.4-0.4c0,0,0,0,0-0.1c-0.1,0-0.1,0-0.2-0.1c0,0,0.2,0.1,0.2,0c-0.1,0-0.3-0.1-0.3-0.2c0.1,0,0.3,0.1,0.3,0
					c-0.2-0.1-0.4-0.1-0.4-0.3c0.1,0,0.4,0.1,0.5,0.1c-0.2-0.1-0.5-0.3-0.6-0.4c0.2,0.1,0.3,0.2,0.6,0.2c-0.3-0.1-0.5-0.4-0.7-0.4
					c0.1,0.3,0.5,0.4,0.6,0.5c-0.2-0.1-0.4-0.1-0.6-0.3c0.1,0.3,0.3,0.3,0.6,0.4c-0.2,0-0.3-0.1-0.5-0.1c0,0.2,0.4,0.1,0.4,0.3
					c-0.1,0-0.2,0-0.3,0c0.1,0.1,0.2,0.1,0.4,0.1c-0.1,0-0.2,0-0.2,0c0.1,0,0.2,0.1,0.3,0.1c-0.1,0-0.1,0-0.1,0.1
					c0,0,0.1-0.1,0.2,0.1l0,0.1l0.1,0c0,0,0,0,0,0.1c0.3,0.1,0.4,0.6,0.8,0.7c-0.2,0.2,0.2,0.3-2.1,1.2c0.1,0,1-0.3,1.3-0.4
					c0.3-0.1,0.6-0.2,0.9-0.3c0.1,0,0.1-0.1,0.2,0c0.4-0.1,0.9,0,1.4-0.4c-0.3,0.1-1,0.2-1.3,0c0.3-0.5,0-1.8,0.3-2
					c0.3-0.2,0.6-1.1,1.1-0.5c0.1,0.1,0.1,0.3-0.1,0.6c-0.2,0.3-0.3,0.5-0.2,1.3c0.1,0.1,0,0.3-0.2,0.3c1,0.1,1.4,0,1.9-0.1
					c0.2,0,0.5-0.2,0.5,0c0,0.1-0.2,0-0.3,0.1c-0.3,0,0.2,0.1,0.3,0.1c0.1,0,0.6-0.1,0.9-0.1C92.5,59.5,92.4,59.6,92.2,59.5z"/>
				<path id="XMLID_81_" class="st5" d="M88.9,54.3c-2.4,0.1-4.2,2.1-4.1,4.5c0.1,2.4,2.1,4.2,4.5,4.1s4.2-2.1,4.1-4.5
					C93.3,56.1,91.3,54.3,88.9,54.3 M89,54.5c2.2-0.1,4.2,1.7,4.3,3.9c0.1,2.2-1.7,4.2-3.9,4.3c-2.2,0.1-4.2-1.7-4.3-3.9
					C84.9,56.5,86.7,54.6,89,54.5"/>
			</g>
		</g>
		<path id="XMLID_33_" class="st3" d="M83.7,72.4c-0.2,0-0.4,0.1-0.7,0.1c1,2.8,2.5,5.4,4.3,7.6c0.7-0.9,1.2-2,1.1-3.3
			C88.6,74.3,86.3,72.4,83.7,72.4z"/>
		<ellipse id="XMLID_32_" class="st3" cx="127.8" cy="61.7" rx="3.1" ry="3.1"/>
		<path id="XMLID_31_" class="st3" d="M128.9,75.2c0.1,0.8,0.3,1.5,0.7,2.2c1.2-2,2.2-4.3,2.9-6.6C130.4,71.1,128.8,73,128.9,75.2z"
			/>
		<path id="XMLID_30_" class="st3" d="M106.4,37.9c-0.9,0-1.8,0.1-2.8,0.3l0,0.1c0.2,2.6,2.4,4.6,5,4.5c2.5-0.1,4.3-2,4.6-4.3
			C111,38.1,108.8,37.8,106.4,37.9z"/>
		<ellipse id="XMLID_29_" class="st3" cx="114.7" cy="80.4" rx="4.2" ry="4.2"/>
	</g>
	<path id="XMLID_28_" class="st1" d="M38.2,85.3c-0.1,0-0.2-0.1-0.2,0c-1.6-0.2-2.7-1.8-2.4-3.4c2.4-14.8,0-21.1,0.1-21.2
		c-0.6-1.5,0-3.2,1.5-3.8c1.5-0.6,3.2,0,3.8,1.5c0.4,0.8,3.1,7.9,0.4,24.4C41,84.4,39.7,85.5,38.2,85.3z"/>
	<circle id="XMLID_27_" class="st1" cx="37.7" cy="91.2" r="3.1"/>
</g>
</svg>
