<?xml version="1.0" encoding="utf-8"?>
<!-- Generator: Adobe Illustrator 19.0.0, SVG Export Plug-In . SVG Version: 6.00 Build 0)  -->
<svg version="1.1" id="Layer_1" xmlns="http://www.w3.org/2000/svg" xmlns:xlink="http://www.w3.org/1999/xlink" x="0px" y="0px"
	 viewBox="0 0 155.2 96.1" style="enable-background:new 0 0 155.2 96.1;" xml:space="preserve">
<style type="text/css">
	.st0{fill:#EFEFEF;}
	.st1{fill:#DDDDDD;}
	.st2{fill:#FFFFFF;}
	.st3{fill:#FCFCFC;}
	.st4{fill:#DD95C0;}
	.st5{fill:#62BA47;}
	.st6{fill:#62BA46;}
</style>
<g>
	<g>
		<path class="st0" d="M143.9,44.6h-19.2h-7.8H45.3h-7.8H18.2l8.3,30.6l0,0c0.8,3,5.4,5.3,11,5.3h87.2c6,0,10.8-2.7,11.1-6
			L143.9,44.6z"/>
		<path class="st1" d="M124.8,44.6H117H81.2v36h43.6c6,0,10.8-2.7,11.1-6l8.1-30H124.8z"/>
		<path class="st2" d="M34.8,62.7c0.5,1.7-0.4,3.5-2.1,4l0,0c-1.7,0.5-3.5-0.4-4-2.1l-2.5-8.2c-0.5-1.7,0.4-3.5,2.1-4l0,0
			c1.7-0.5,3.5,0.4,4,2.1L34.8,62.7z"/>
		<path class="st2" d="M26.3,22.9"/>
		<g>
			<polygon class="st0" points="143.9,40.2 17.5,40.2 28.5,20.4 132.2,20.4 			"/>
			<path class="st3" d="M132.2,20.4l11.7,19.8H17.5l11-19.8H132.2 M132.2,14.9H28.5c-2,0-3.9,1.1-4.9,2.9l-11,19.8
				c-1,1.7-0.9,3.8,0.1,5.5s2.8,2.7,4.8,2.7h126.4c2,0,3.9-1.1,4.8-2.8c1-1.7,1-3.9,0-5.6L137,17.6
				C135.9,15.9,134.1,14.9,132.2,14.9L132.2,14.9z"/>
		</g>
	</g>
	<path class="st4" d="M125.5,80.4c0-3.7-3-6.6-6.6-6.6c-3.7,0-6.6,3-6.6,6.6c0,0.1,0,0.1,0,0.2h13.2
		C125.5,80.5,125.5,80.4,125.5,80.4z"/>
	<circle class="st4" cx="41.1" cy="54.2" r="4.2"/>
	<path class="st4" d="M116.3,52.5c2.7,0,4.9-2.2,4.9-4.9c0-0.7-0.1-1.3-0.4-1.8h-9.1c-0.2,0.6-0.4,1.2-0.4,1.8
		C111.4,50.3,113.6,52.5,116.3,52.5z"/>
	<g>
		<path class="st4" d="M83.7,24.1c-0.2,0.6-1,1-2,1c-1.1,0-2-0.5-2-1.2c-5.5,0.4-9.8,3.2-9.9,6.7c0,0.7,0.2,1.3,0.5,2h0.1
			c1.1,0,2,0.5,2,1.2c0,0.3-0.2,0.6-0.5,0.8c1.8,1.6,4.7,2.6,8,2.8c0.8,0.1,2.6,0,3.7-0.2c2.7-0.4,4.9-1.4,6.4-2.8
			c-0.1-0.2-0.2-0.3-0.2-0.5c0-0.6,0.7-1,1.5-1.1c0.4-0.7,0.6-1.4,0.6-2.1C91.9,27.5,88.4,24.8,83.7,24.1z M72.1,28.8
			c-0.6,0-1.1-0.3-1.1-0.6c0-0.4,0.5-0.6,1.1-0.6s1.1,0.3,1.1,0.6C73.2,28.5,72.7,28.8,72.1,28.8z M89.5,31.1
			c-0.7,0-1.3-0.4-1.3-0.8c0-0.4,0.6-0.8,1.3-0.8s1.3,0.4,1.3,0.8S90.2,31.1,89.5,31.1z"/>
		<g>
			<ellipse class="st5" cx="72.1" cy="36.7" rx="3.5" ry="2.1"/>
			<path class="st2" d="M69.8,36.5c0.1-0.1,0.2-0.2,0.3-0.3c0,0,0.1-0.1,0.2-0.1c0.1,0,0.1-0.1,0,0c0,0.1,0,0.1,0,0.2
				c0,0.4,0,0.8-0.1,1.1c0,0.1,0.4,0,0.4-0.1c0-0.2,0.1-0.5,0.1-0.7c0-0.1,0.1-0.7-0.1-0.7c-0.4-0.1-0.8,0.5-1,0.6
				C69.3,36.6,69.7,36.6,69.8,36.5L69.8,36.5z"/>
			<path class="st2" d="M71.7,36.5c-0.2-0.1-0.6-0.3-0.3-0.4c0.1,0,0.3,0,0.4,0C72.1,36.2,71.9,36.3,71.7,36.5
				c-0.1-0.1-0.6,0.2-0.4,0.3c0.3,0.1,0.8,0,0.8,0.3c0,0.2-0.5,0.2-0.7,0.1c-0.3-0.1-0.3-0.3,0.1-0.4c0.1-0.1,0.3-0.3,0-0.2
				s-0.7,0.3-0.7,0.6c0,0.2,0.3,0.3,0.5,0.4c0.4,0,0.8-0.1,1-0.3s0.2-0.4-0.2-0.5c-0.1,0-0.4-0.1-0.5,0c0.2-0.1,0.4-0.2,0.5-0.3
				c0.3-0.2,0.2-0.4-0.3-0.5c-0.4,0-0.7,0.1-0.9,0.3s0,0.5,0.4,0.6C71.5,36.8,71.9,36.6,71.7,36.5L71.7,36.5z"/>
			<g>
				<path class="st2" d="M74.3,36c-0.4,0.5-1,0.9-1.5,1.3c-0.2,0.2,0.1,0.2,0.3,0.1c0.5-0.4,1.1-0.9,1.6-1.4
					C74.9,35.8,74.4,35.9,74.3,36L74.3,36z"/>
				<path class="st2" d="M73.5,35.9c-0.3,0-0.5,0.2-0.5,0.3s0.1,0.3,0.3,0.3C73.9,36.5,74.1,35.9,73.5,35.9c-0.1,0-0.3,0.2-0.2,0.2
					s0.2,0.1,0.2,0.1v0.1l0,0h-0.1c-0.1,0-0.2-0.1-0.2-0.1v-0.1l0,0c0,0,0,0,0.1,0C73.5,36.1,73.7,35.9,73.5,35.9z"/>
				<path class="st2" d="M74.3,36.9c-0.3,0-0.5,0.2-0.5,0.3s0.1,0.3,0.3,0.3C74.6,37.5,74.9,36.9,74.3,36.9c-0.1,0-0.3,0.2-0.2,0.2
					s0.2,0.1,0.2,0.1v0.1l0,0h-0.1c-0.1,0-0.2-0.1-0.2-0.1v-0.1l0,0c0,0,0,0,0.1,0C74.3,37,74.5,36.9,74.3,36.9z"/>
			</g>
		</g>
		<path class="st4" d="M75.6,22.3c0,0.5-0.6,0.9-1.4,0.9c-0.8,0-1.4-0.4-1.4-0.9s0.6-0.9,1.4-0.9C75,21.5,75.6,21.8,75.6,22.3
			L75.6,22.3z"/>
		<path class="st5" d="M75.7,25.3c0,0.6-0.8,1.1-1.8,1.1s-1.8-0.5-1.8-1.1s0.8-1.1,1.8-1.1C74.9,24.1,75.7,24.6,75.7,25.3L75.7,25.3
			z"/>
		<path class="st5" d="M70.8,23.5c0,0.4-0.5,0.7-1.1,0.7s-1.1-0.3-1.1-0.7s0.5-0.7,1.1-0.7C70.3,22.9,70.8,23.2,70.8,23.5L70.8,23.5
			z"/>
		<g>
			<ellipse class="st5" cx="90.3" cy="24.4" rx="6.1" ry="3.7"/>
			<g>
				<path class="st2" d="M88.8,23.9c-0.5,0-0.6,0.4-0.7,0.7l0,0l0,0v0.1c0,0.1,0,0.2,0,0.3c0,0,0,0.1-0.1,0.1
					c-0.2,0-0.3-0.2-0.4-0.2c-0.1-0.2-0.2-0.4-0.3-0.6c-0.1-0.2-0.1-0.4-0.1-0.7c0-0.1,0-0.2,0-0.3v-0.1v-0.1c0-0.2-0.3,0-0.4,0.1
					c-0.4,0.4-0.3,0.9-0.3,1.4c0,0.1,0,0.3,0,0.4c0,0.1,0,0.2-0.2,0.3c-0.1,0-0.2,0-0.3,0s-0.2-0.1-0.2-0.2c0-0.1-0.1,0-0.2,0
					c-0.1,0.1-0.2,0.1-0.2,0.2c0,0.2,0.3,0.3,0.6,0.3c0.5-0.1,0.6-0.4,0.8-0.7c0.1-0.1,0.1-0.3,0.1-0.4c0.1,0.2,0.2,0.4,0.3,0.5
					s0.3,0.3,0.5,0.2c0.2,0,0.3-0.1,0.4-0.3c0.1,0.1,0.2,0.2,0.5,0.2s0.5-0.2,0.6-0.3c0.1-0.2,0.1-0.3,0.1-0.5
					C89.4,24.3,89.3,23.9,88.8,23.9z M88.9,25C88.9,25,88.9,25.1,88.9,25c-0.1,0.1-0.2,0-0.2,0c-0.1-0.1-0.1-0.2-0.1-0.3
					s0-0.2,0-0.4v-0.1c0.3,0.1,0.3,0.3,0.3,0.5C89,24.8,89,24.9,88.9,25z"/>
				<path class="st2" d="M94.8,24.4c-0.5-0.1-0.9,0.3-1,0.6c-0.1,0.2-0.2,0.6,0.3,0.8c0.2,0.1,0.5,0,0.6-0.1
					c0.2-0.1,0.3-0.3,0.3-0.4C95.2,24.9,95.3,24.5,94.8,24.4z M94.5,25.4C94.5,25.5,94.4,25.5,94.5,25.4c-0.2,0-0.2-0.1-0.2-0.1
					c0-0.1,0-0.2,0-0.3s0.1-0.2,0.2-0.3c0,0,0-0.1,0.1-0.1c0.2,0.1,0.2,0.4,0.1,0.5C94.6,25.2,94.6,25.3,94.5,25.4z"/>
				<path class="st2" d="M93.3,24.4c0.1-0.1,0.2-0.2,0.3-0.3c0.2-0.2,0.4-0.4,0.4-0.6c0-0.2-0.5-0.2-0.7-0.2
					c-0.3,0.1-0.5,0.3-0.6,0.6s-0.2,0.6-0.2,0.9l0,0c-0.2,0.1-0.5,0.4-0.8,0.3c-0.1,0-0.1-0.1-0.1-0.1c0.2-0.1,0.4-0.3,0.6-0.5
					c0.2-0.2,0.3-0.4,0-0.5s-0.6,0-0.8,0.1s-0.3,0.3-0.3,0.5c0,0.1,0,0.2,0,0.4c-0.2,0.1-0.4,0.1-0.5,0.1c-0.2,0-0.3-0.2-0.3-0.3
					c-0.1-0.2,0-0.3,0-0.5c0,0,0-0.1,0.1-0.1l0,0c0.1,0,0.2,0.2,0.2,0.2c0.1,0.1,0.5-0.1,0.5-0.2C91,24.1,91,24,90.8,23.9
					s-0.5,0-0.6,0.1c-0.3,0.2-0.4,0.5-0.3,0.8c0,0.2,0.1,0.4,0.3,0.5c0.3,0.1,0.8,0,1.1-0.1c0.1,0.1,0.2,0.2,0.5,0.2
					s0.6-0.1,0.9-0.3c0,0.2,0.1,0.3,0.2,0.4c0.3,0.1,0.6,0,0.8-0.2s0.4-0.5,0.2-0.7C93.7,24.5,93.5,24.4,93.3,24.4z M91.5,24.3
					c0,0,0-0.1,0.1-0.1l0,0c0.1,0,0.2,0.1,0.1,0.2c0,0.1-0.2,0.2-0.3,0.4c0,0,0,0,0-0.1C91.4,24.5,91.4,24.4,91.5,24.3z M93.3,23.7
					l0.1-0.1l0,0c0.2,0.1,0,0.3-0.1,0.5c-0.1,0.1-0.2,0.3-0.4,0.4c0-0.1,0.1-0.3,0.1-0.4C93.1,23.9,93.2,23.8,93.3,23.7z M93.2,25.2
					C93.1,25.2,93.1,25.2,93.2,25.2c-0.1,0.1-0.1,0.1-0.1,0c-0.1,0-0.1-0.2-0.2-0.3c0-0.1,0-0.1,0-0.2c0.1,0,0.1-0.1,0.2-0.1
					c0.1,0,0.2,0,0.2,0.1C93.3,24.9,93.2,25.1,93.2,25.2z"/>
			</g>
		</g>
		<g>
			<g>
				<path class="st2" d="M86,29.7c0.2-0.3,0.3-0.7-0.1-1c-0.3-0.2-0.7-0.2-1-0.1c0-0.1,0.1-0.3,0.1-0.4c0-0.1-0.4-0.1-0.5-0.1
					c-0.2,0-0.4,0.1-0.4,0.2c0,0.5-0.2,1-0.3,1.5c-0.2,0.1-0.4,0.1-0.6,0.2c-0.1,0-0.2,0.1-0.3,0c-0.2,0-0.2-0.3-0.2-0.4
					c0-0.5,0-1,0.5-1.3c0.1-0.1,0-0.2-0.3-0.1c-0.3,0-0.5,0.1-0.6,0.2c-0.4,0.5-0.4,1.1-0.3,1.6c0,0.2,0.1,0.3,0.5,0.4
					c0.4,0,0.9-0.1,1.2-0.2v0.1c-0.2,0.5-0.4,0.9-0.6,1.4c-0.1,0.1,0.1,0.1,0.2,0.1c0.1,0,0.3-0.1,0.3-0.2c0.2-0.3,0.4-0.6,0.5-1
					c0.2,0,0.5,0,0.7,0C85.4,30.4,85.8,30.1,86,29.7z M84.9,28.8L84.9,28.8L84.9,28.8z M84.6,30.3L84.6,30.3L84.6,30.3z M84.6,30.3
					L84.6,30.3L84.6,30.3c-0.3,0-0.3-0.2-0.3-0.3l0,0c0.1-0.3,0.3-0.6,0.4-0.8l0,0c0-0.1,0.1-0.2,0.2-0.2l0,0l0,0
					c0.1,0,0.2,0.1,0.2,0.1c0.2,0.2,0.1,0.5,0,0.7C85,29.9,84.9,30.1,84.6,30.3z"/>
				<path class="st2" d="M80.9,28.6L80.9,28.6c-0.1,0-0.1,0-0.1,0c-0.2,0-0.4,0.1-0.5,0.1c0-0.2-0.1-0.4-0.1-0.6c0-0.1-0.3,0-0.4,0
					c-0.2,0.1-0.4,0.2-0.4,0.3c0,0.2-0.1,0.5-0.2,0.7c-0.1,0.2-0.1,0.4-0.2,0.6c0,0.1-0.1,0.2-0.1,0.2s0,0.1-0.1,0.1
					c-0.2,0.1-0.4,0.1-0.6,0.1c-0.2,0-0.4-0.1-0.6-0.2c-0.4-0.3-0.7-0.7-0.8-1.1c-0.1-0.2-0.1-0.4,0-0.6c0-0.1,0-0.2,0.1-0.2
					c0-0.1,0-0.1,0.1-0.1l0,0l0,0l0,0l0,0l0,0c0,0,0,0,0.1,0c0,0,0.2,0,0.3-0.1c0.6-0.1,0.8,0.2,0.9,0.4c0.1,0.2,0.9-0.2,0.8-0.4
					c-0.2-0.3-0.7-0.6-1.3-0.5c-0.5,0-0.9,0.2-1.2,0.4c-0.6,0.4-0.8,1-0.6,1.6c0.2,0.5,0.6,1,1.3,1.2c0.3,0.1,0.6,0.2,0.9,0.1
					c0.7-0.1,1.1-0.5,1.3-0.9c0,0,0,0,0-0.1l0,0c0,0.3,0.4,0.7,1,0.7c0.7,0,1-0.5,1.1-0.9C81.8,29.1,81.6,28.6,80.9,28.6z M81,29.8
					C81,29.9,81,29.9,81,29.8c-0.1,0.1-0.1,0.1-0.1,0.1c-0.4,0-0.5-0.3-0.6-0.5c0,0,0,0,0-0.1l0,0v-0.1c0-0.1,0-0.1,0-0.2
					c0,0,0-0.1,0.1-0.1l0,0c0.4,0,0.6,0.3,0.6,0.5C81.1,29.6,81.1,29.7,81,29.8z"/>
			</g>
		</g>
		<g>
			<g>
				<path class="st2" d="M80.9,32.7c-0.1,0-0.2-0.2-0.2-0.3c0-0.2,0-0.4,0-0.7l0,0c0-0.2-0.2-0.2-0.5-0.2c-0.2,0-0.4,0.2-0.5,0.3
					c-0.2,0.2-0.2,0.5-0.1,0.8c0,0,0,0-0.1,0c0,0-0.1,0-0.1,0.1c-0.2,0-0.3-0.3-0.3-0.4C79,32.1,79,31.8,79,31.6
					c0-0.1-0.1-0.1-0.2,0c-0.1,0-0.2,0.1-0.2,0.2c0,0.2,0.1,0.5,0.1,0.7c0,0.1,0,0.2-0.1,0.3l0,0h-0.1c-0.3,0-0.3-0.3-0.3-0.4
					c0-0.2,0-0.4,0-0.6c0,0,0,0,0-0.1c0,0-0.1-0.1-0.2,0c-0.1,0-0.2,0.1-0.3,0.2C77.6,32,77.5,32,77.3,32c-0.1,0-0.2,0-0.3-0.1
					c0,0,0,0-0.1,0s-0.2-0.1-0.3-0.1l0,0l0,0c-0.5,0.1-0.5,0.5-0.4,0.8c0,0.1,0.1,0.2,0.2,0.4c-0.1,0.1-0.2,0.1-0.3,0.1
					S76,33,75.9,33c-0.2-0.2-0.3-0.3-0.4-0.5c-0.2-0.3-0.3-0.6-0.3-1c0-0.1-0.1,0-0.2,0c-0.1,0-0.2,0.1-0.2,0.2
					c-0.1,0.2,0,0.5,0,0.7l0,0c0,0,0,0,0-0.1c-0.1-0.2-0.2-0.4-0.3-0.6c-0.1-0.1-0.1-0.3-0.1-0.4c0-0.2-0.3,0-0.3,0.1
					c-0.3,0.5,0,1,0.2,1.4c0,0.1,0.1,0.2,0.1,0.4c0,0.1,0,0.2-0.1,0.3c-0.1,0-0.2,0-0.3,0s-0.2-0.1-0.2-0.2c0-0.1-0.2,0-0.2,0
					c-0.1,0.1-0.2,0.1-0.1,0.2c0.1,0.2,0.4,0.3,0.7,0.2c0.4-0.1,0.5-0.5,0.6-0.7c0-0.2,0-0.3-0.1-0.5c0.2,0.3,0.3,0.6,0.5,0.8
					c0.1,0.1,0.3-0.1,0.3-0.2c-0.1-0.2-0.1-0.4-0.1-0.6c0,0.1,0.1,0.1,0.1,0.2c0.1,0.2,0.2,0.4,0.5,0.5c0.1,0,0.3,0,0.4,0
					c0.2,0,0.3-0.1,0.4-0.2c0.1,0.1,0.2,0.1,0.4,0.1s0.4-0.2,0.4-0.3c0.1-0.2,0.1-0.3,0-0.5c0-0.1,0-0.1-0.1-0.2l0,0
					c0.2,0,0.3,0,0.4-0.1c0,0.2,0,0.3,0.1,0.5s0.2,0.5,0.6,0.4c0.3,0,0.4-0.1,0.5-0.2c0,0.1,0.1,0.1,0.2,0.1
					c-0.2,0.1-0.3,0.3-0.1,0.5c0.1,0.1,0.5-0.1,0.4-0.2c-0.1-0.1-0.1-0.2,0.1-0.2l0,0c0.1,0,0.2-0.1,0.3-0.1l0,0
					c0,0.1,0.1,0.1,0.2,0.1c0.2,0.1,0.4,0,0.5-0.1l0,0c0,0.1,0.1,0.1,0.1,0.1c0.2,0.1,0.3,0,0.5-0.1c0,0,0.2-0.1,0.1-0.2
					C81.1,32.7,81,32.7,80.9,32.7z M77,33L77,33L77,33z M77,32.9C77,32.9,77,33,77,32.9c-0.1,0.1-0.2,0-0.2,0
					c-0.1-0.1-0.2-0.2-0.2-0.3s-0.1-0.2-0.1-0.3v-0.1c0.2,0,0.4,0.3,0.4,0.4C77,32.7,77,32.8,77,32.9z M78.6,32.8
					C78.6,32.9,78.6,32.9,78.6,32.8L78.6,32.8z M80.2,32.7L80.2,32.7c-0.1,0-0.2-0.1-0.2-0.1c-0.1-0.2-0.1-0.4,0-0.6
					c0-0.1,0.1-0.1,0.1-0.2l0,0h0.1c0.1,0,0.2,0,0.2,0.1C80.3,32.2,80.3,32.4,80.2,32.7C80.3,32.7,80.3,32.7,80.2,32.7z"/>
				<path class="st2" d="M88.5,33.7c0,0-0.1,0-0.2,0c-0.1,0,0-0.3,0-0.3c0.1-0.2,0.2-0.4,0.4-0.6l0,0c0.1-0.1-0.1-0.3-0.4-0.3
					c-0.3,0-0.5,0-0.7,0.1c-0.3,0.2-0.5,0.4-0.6,0.7c-0.1,0-0.2,0-0.3,0s-0.1-0.1-0.1-0.2c0-0.3,0.2-0.7,0.3-1c0,0,0-0.1-0.1-0.1
					s-0.2,0-0.3,0.1c-0.3,0.2-0.4,0.4-0.5,0.7c0,0.1-0.1,0.1-0.1,0.2v0.1c-0.1,0-0.1-0.1-0.1-0.1c0-0.1-0.2-0.1-0.4,0h-0.1v-0.1
					c0-0.1,0-0.2,0-0.3c0-0.3,0.1-0.5,0.2-0.8c0-0.1,0-0.1-0.1-0.1s-0.2,0.1-0.3,0.1c-0.2,0.2-0.4,0.4-0.5,0.7
					c0,0.1-0.1,0.1-0.1,0.2v0.1c-0.1,0-0.1-0.1-0.1-0.1l0,0c0-0.1-0.2,0-0.4,0c-0.1,0-0.3,0.1-0.4,0c-0.1,0-0.1-0.1-0.1-0.1
					c0.3-0.2,0.6-0.3,0.7-0.5c0.1-0.1,0.2-0.3,0-0.4c-0.2-0.2-0.6,0-0.8,0.1c-0.3,0.1-0.7,0-0.9-0.1l-0.1-0.1c-0.2-0.1-0.4,0-0.5,0
					c0-0.1,0-0.2,0-0.3s-0.2,0-0.3,0s-0.2,0.1-0.2,0.2c0.1,0.4,0.1,0.8,0.1,1.3c0,0.3,0,0.6-0.1,0.9c0,0.1,0.1,0.1,0.2,0
					c0.1,0,0.2-0.1,0.2-0.2c0-0.2,0.1-0.4,0.1-0.7c0.1,0,0.3,0,0.4-0.1c0.3-0.2,0.4-0.4,0.4-0.7v-0.1l0,0c0.2,0,0.3,0,0.5,0
					c-0.1,0.2-0.2,0.5-0.1,0.7c0,0.1,0.1,0.2,0.3,0.2s0.4,0,0.6,0c0,0.1,0.1,0.1,0.2,0.1c0.2,0,0.5,0,0.6-0.1c0.1,0,0.1-0.1,0.2-0.1
					v0.1c0,0.1,0,0.2,0.1,0.3s0.3,0,0.4,0l0,0c0,0.1,0.1,0.1,0.2,0.1c0.2,0,0.4,0,0.6-0.1c0.1,0,0.1-0.1,0.2-0.1c0,0.1,0,0.2,0,0.3
					c0.1,0.2,0.5,0.2,0.8,0.1c0,0.1,0,0.1,0.1,0.2c0.1,0.1,0.4,0.1,0.6,0l0,0c0,0.1,0,0.1,0,0.2c0.1,0.1,0.4,0.1,0.5,0.1
					C88.4,33.9,88.6,33.8,88.5,33.7z M81.7,31.8L81.7,31.8L81.7,31.8z M81.9,32.7L81.9,32.7L81.9,32.7z M81.9,32.7L81.9,32.7
					L81.9,32.7c-0.2,0-0.2-0.1-0.2-0.2l0,0c0-0.2,0-0.4,0-0.5l0,0c0-0.1,0-0.1,0-0.2l0,0l0,0c0.1,0,0.1,0,0.1,0.1
					c0.1,0.1,0.1,0.3,0.2,0.4C82,32.4,82,32.6,81.9,32.7z M83.5,32.2c-0.1,0.1-0.2,0.2-0.3,0.2c0-0.1,0-0.3,0.1-0.4l0.1-0.1
					c0,0,0,0,0.1,0c0,0,0,0,0.1,0C83.7,32,83.6,32.1,83.5,32.2z M87.6,33.5L87.6,33.5c-0.1-0.1-0.1-0.1-0.1-0.2l0,0l0,0
					c0-0.2,0.1-0.4,0.3-0.5l0.2-0.1l0,0h0.1c0.1,0,0.1,0.1,0.1,0.1C88,33,87.9,33.3,87.6,33.5L87.6,33.5z"/>
			</g>
		</g>
		<g>
			<path class="st6" d="M67.4,27.8c-0.1,0-0.1-0.1-0.2-0.1c-0.2-0.1-0.4,0-0.6,0c-0.5,0-0.7,0-1.3-0.1c0-0.3,0.3-0.5,0.5-0.8
				c0.1-0.2-0.1-0.5-0.1-0.8c0-0.2,0-0.3,0-0.5c-0.2,0.1-0.1,0.4-0.1,0.6c-0.1-0.2-0.1-0.5-0.2-0.6c-0.1,0.2,0,0.5,0,0.6
				c-0.1-0.2-0.1-0.4-0.2-0.6c-0.1,0.2,0.1,0.5,0.1,0.6c-0.1-0.2-0.2-0.4-0.3-0.5c0,0.2,0.1,0.4,0.1,0.5c-0.1-0.1-0.2-0.3-0.3-0.4
				c0,0.1,0.1,0.3,0.2,0.4c-0.1,0-0.2-0.2-0.4-0.2c0,0.1,0.1,0.2,0.2,0.3c-0.1,0-0.2-0.1-0.3-0.1c0,0.1,0.1,0.1,0.2,0.2
				c-0.1,0-0.1-0.1-0.2-0.1c0,0.1,0.2,0.1,0.2,0.2h-0.1c0,0,0.1,0,0.1,0.1h-0.1c0,0.1,0.1,0,0.1,0.1c0,0,0,0-0.1,0
				c0,0,0.1,0,0.1,0.1c-0.5,0.3-0.2,0.6-0.3,0.9c0,0-0.4-0.1-0.7-0.2c-0.2,0-0.2-0.2-0.3-0.2l0,0c0,0-0.1,0-0.1-0.1
				c0.1,0,0.2,0,0.2,0c-0.1,0-0.3-0.1-0.3-0.1c0.1,0,0.2,0,0.3,0c-0.1,0-0.4-0.1-0.4-0.2c0.1,0,0.3,0.1,0.4,0.1
				c-0.2-0.1-0.5-0.2-0.5-0.2c0.1,0,0.3,0.1,0.5,0.1c-0.2,0-0.4-0.2-0.6-0.2c0.1,0.1,0.4,0.2,0.5,0.3c-0.2-0.1-0.4-0.1-0.5-0.2
				c0.1,0.1,0.3,0.2,0.5,0.3c-0.2,0-0.3-0.1-0.4-0.1c0,0.1,0.3,0.1,0.4,0.2c-0.1,0-0.2,0-0.3,0c0,0.1,0.2,0.1,0.3,0.1
				c-0.1,0-0.2,0-0.2,0c0.1,0,0.2,0,0.2,0.1c-0.1,0-0.1,0-0.1,0s0.1,0,0.2,0c0,0-0.1,0,0,0h0.1c0,0,0,0-0.1,0
				c0.2,0.1,0.4,0.3,0.7,0.4c-0.2,0.1,0.2,0.2-1.9,0.6c0.1,0,0.9-0.1,1.2-0.2c0.3-0.1,0.5-0.1,0.8-0.2c0.1,0,0.1,0,0.2,0
				c0.4,0,0.8,0,1.3-0.1c-0.3,0-0.9,0.1-1.1,0c0.3-0.3,0.1-1,0.3-1.1s0.6-0.6,1-0.2c0.1,0.1,0.1,0.2-0.1,0.3
				c-0.2,0.2-0.3,0.3-0.3,0.7c0,0.1,0,0.2-0.2,0.2c0.9,0.1,1.2,0.1,1.7,0c0.2,0,0.4-0.1,0.5,0c0,0-0.2,0-0.3,0
				C67,27.7,67.4,27.8,67.4,27.8c0.2,0,0.6,0,0.9-0.1C67.7,27.8,67.6,27.8,67.4,27.8z"/>
			<path class="st6" d="M64.7,24.9c-2.1,0-3.8,1.1-3.8,2.4c0,1.3,1.7,2.4,3.8,2.4c2.1,0,3.8-1.1,3.8-2.4
				C68.6,25.9,66.8,24.9,64.7,24.9 M64.7,25c2,0,3.7,1,3.7,2.3c0,1.2-1.7,2.3-3.7,2.3c-2,0-3.7-1-3.7-2.3S62.7,25,64.7,25"/>
		</g>
	</g>
	<g>
		<path class="st4" d="M68.6,65.8c0.1,2.3,2.2,2.1,3.3,0.6c2.1-2.8,0.7-6.6,2.4-9.5c-0.4,0.1-0.8,0.3-1.2,0.4
			c-0.6,3.1,0,6.7,0.1,9.8c0,0.8,1.3-0.3,1.3-0.7c0.3-2.6,0.6-5.7,1.7-8.1c-0.4,0.1-0.8,0.3-1.2,0.4c-0.4,2.4-0.5,5.2,0.2,7.6
			c0.8,2.8,3-0.5,3.6-1.7c0.4-0.9-1.1-0.1-1.3,0.4c-0.7,1.7-0.9,0.6-1.1-0.4c-0.2-0.9-0.2-1.8-0.2-2.7c0-1.3,0-2.7,0.2-4
			c0.1-0.8-1.1,0.1-1.2,0.4c-1.2,2.6-1.6,5.9-1.9,8.7c0.4-0.2,0.9-0.5,1.3-0.7c-0.2-3.1-0.8-6.7-0.1-9.8c0.2-0.8-1.1,0.2-1.2,0.4
			c-0.8,1.3-1,2.7-1.1,4.2C72.1,62,72,63,71.9,63.9c-0.1,0.5-0.2,1-0.4,1.4c-0.6,1.9-1.4,0.1-1.4-0.4C70,64.2,68.6,65.2,68.6,65.8
			L68.6,65.8z"/>
		<path class="st4" d="M52.8,58.5c-0.4-1.8-1.9-3-3.5-1.5c-1.5,1.4-1.8,3.7-1.9,5.7c0,1.6,0.2,4,1.9,4.6c2.1,0.8,3.8-2.4,4.3-3.9
			c0.3-0.9-1.1-0.1-1.2,0.4c-0.4,1.4-1.6,3.2-2.9,1.6c-0.7-0.9-0.8-2.4-0.8-3.4c0-1.1,0.2-2.2,0.5-3.3c0.7-2,2-0.7,2.3,0.8
			C51.7,60.1,52.9,59.1,52.8,58.5L52.8,58.5z"/>
		<path class="st4" d="M100.5,65.9c0.1,1.5,1.6,1.2,2.5,0.5c0.7-0.7,0.7-1.8,0.8-2.6c0.1-1.3,0.3-2.6,0.8-3.9
			c-0.4,0.2-0.9,0.4-1.3,0.6c0,1.1-0.3,8.2,2.3,6.2c0.6-0.5,0.7-1.6-0.3-0.9c0.2-0.1-0.1-0.5-0.2-0.8c-0.2-0.4-0.2-0.9-0.3-1.4
			c-0.2-1.3-0.2-2.6-0.2-3.9c0-0.9-1.2,0.3-1.3,0.6c-0.4,1-0.6,2-0.8,3c-0.1,0.7-0.2,1.4-0.2,2.1c-0.1,0.6-0.1,0.7,0,0.4
			c-0.3,0-0.5-0.3-0.5-0.5C101.8,64.4,100.5,65.4,100.5,65.9L100.5,65.9z"/>
		<path class="st4" d="M105.6,65.9c0.1,1.6,1.8,1.3,2.6,0.3c0.6-0.7,0.6-1.6,0.7-2.5c0.1-1.3,0.3-2.6,0.8-3.9
			c-0.4,0.2-0.9,0.4-1.3,0.6c0,1.5,0,3,0.3,4.5c0.1,0.7,0.2,1.9,1,2.2c1.6,0.6,2.6-2.2,2.8-3.2c0.1-0.7-1.2,0.2-1.3,0.7
			c-0.2,1.2-0.5,1.6-0.9,0.3c-0.5-1.6-0.4-3.4-0.4-5.1c0-0.9-1.2,0.3-1.3,0.6c-0.4,0.8-0.6,1.7-0.7,2.6c-0.1,0.5-0.1,1.1-0.2,1.6
			c0,0.3-0.1,0.6-0.1,0.9c-0.1,0.8-0.5,0.2-0.5-0.1C106.8,64.4,105.5,65.4,105.6,65.9L105.6,65.9z"/>
		<path class="st4" d="M98.8,65.1c1-1.2,3-3.8,1.7-5.3c-0.9-1.1-2.4,0.6-2.7,1.4c-0.6,1.4-0.7,3.2-0.2,4.7c0.6,1.9,2.4,1.1,3.5,0.2
			c0.6-0.5,0.6-1.6-0.3-0.9c-2.1,1.8-2.3-1.5-2.1-2.9c0-0.4,0.1-0.8,0.2-1.2c0.2-0.6,0-0.4,0.4-0.1c1.1,0.9-0.9,3.2-1.4,3.9
			C97.1,65.8,98.3,65.7,98.8,65.1L98.8,65.1z"/>
		<path class="st4" d="M91.8,60.4c-0.1-2-2.4-0.9-3.1,0.1c-0.9,1.4-1,3.2-0.8,4.8c0.3,1.5,1.5,2,2.6,0.9
			C92,64.8,91.7,62.3,91.8,60.4c-0.4,0.2-0.9,0.5-1.3,0.7c0,1.1-0.1,2.3,0,3.5c0.1,0.7,0.1,1.5,0.5,2.1c0.8,1.1,2.8-1.1,3.1-1.6
			c0.7-0.9-0.4-0.9-0.9-0.3c-0.8,1.1-1.2,0.8-1.4-0.3C91.7,63.2,91.8,61.8,91.8,60.4c0-0.8-1.3,0.2-1.3,0.7
			c-0.1,1.1-0.1,2.2-0.2,3.3c0,0.3-0.2,1.1-0.3,1.1c-0.3,0-0.4-0.4-0.5-0.6c-0.3-0.7-0.3-1.6-0.2-2.4c0-0.4,0.1-0.9,0.2-1.3
			c0.1-0.2,0.1-0.4,0.3-0.6c0.3-0.4,0.8,0.4,0.8,0.5C90.5,61.9,91.8,60.9,91.8,60.4L91.8,60.4z"/>
		<path class="st4" d="M115.1,60.4c-0.1-2-2.4-0.9-3.1,0.1c-0.9,1.4-1,3.2-0.8,4.8c0.3,1.5,1.5,2,2.6,0.9
			C115.3,64.8,115,62.3,115.1,60.4c-0.4,0.2-0.9,0.5-1.3,0.7c0,1.2-0.6,7.3,2.1,5.4c0.7-0.5,0.7-1.6-0.3-0.9
			c-0.3,0.2-0.5-1.9-0.5-1.9C115,62.6,115.1,61.5,115.1,60.4c0-0.8-1.3,0.2-1.3,0.7c-0.1,1.1-0.1,2.2-0.2,3.3c0,0.3-0.2,1.1-0.3,1.1
			c-0.3,0-0.4-0.4-0.5-0.6c-0.3-0.7-0.3-1.6-0.2-2.4c0-0.4,0.1-0.9,0.3-1.3c0.1-0.2,0.1-0.4,0.3-0.6c0.3-0.4,0.8,0.4,0.8,0.5
			C113.8,61.9,115.1,60.9,115.1,60.4L115.1,60.4z"/>
		<g>
			<path class="st4" d="M60,65.7c0.1,1.6,1.5,1.9,2.6,0.9c1-1,1.2-2.4,1.2-3.8c0-1.1-0.2-2.7-1.2-3.2c-0.5-0.3-1.2,0.2-1.6,0.4
				c-0.8,0.6-1.1,1.6-1.1,2.5c0,0.8,1.3-0.2,1.3-0.7c0-1,0.4-1.1,0.8-0.3c0.2,0.5,0.3,1.1,0.4,1.7c0.1,0.7,0.1,1.4-0.1,2
				c-0.1,0.2-0.1,0.5-0.3,0.7c0.1-0.1,0-0.1-0.2-0.1c-0.4-0.1-0.6-0.5-0.6-0.9C61.3,64.2,60,65.2,60,65.7L60,65.7z"/>
			<path class="st4" d="M59.7,59.6c0.5,3.9,0.4,8,0,11.8c-0.1,0.7,1.3-0.2,1.3-0.7c0.4-4,0.5-8.1-0.1-12.1
				C60.9,58,59.6,59,59.7,59.6L59.7,59.6z"/>
		</g>
		<g>
			<path class="st4" d="M93.1,65.7c0.1,1.6,1.5,1.9,2.6,0.9c1-1,1.2-2.4,1.2-3.8c0-1.1-0.2-2.7-1.2-3.2c-0.5-0.3-1.2,0.2-1.6,0.4
				c-0.8,0.6-1.1,1.6-1.1,2.5c0,0.8,1.3-0.2,1.3-0.7c0-1,0.4-1.1,0.8-0.3c0.2,0.5,0.3,1.1,0.4,1.7c0.1,0.7,0.1,1.4-0.1,2
				c0,0.2-0.1,0.5-0.3,0.7c0.1-0.1,0-0.1-0.2-0.1c-0.4-0.1-0.6-0.5-0.6-0.9C94.3,64.2,93,65.2,93.1,65.7L93.1,65.7z"/>
			<path class="st4" d="M92.7,59.6c0.5,3.9,0.4,8,0,11.8c-0.1,0.7,1.3-0.2,1.3-0.7c0.4-4,0.5-8.1-0.1-12.1C94,58,92.6,59,92.7,59.6
				L92.7,59.6z"/>
		</g>
		<path class="st4" d="M79.8,59.5c-1.6,0.1-2.2,2.1-2.4,3.5c-0.1,1.1-0.1,4,1.5,4.2c1.7,0.1,2.4-2.2,2.6-3.5c0.1-1.1,0-4-1.6-4.2
			c-0.6-0.1-1.5,1.3-1,1.3c0.9,0.1,1.1,1.4,1.2,2.1c0.1,0.6,0.1,1.2,0,1.7c0,0.2-0.1,0.5-0.1,0.7s-0.3,0.6-0.1,0.5
			c-0.8,0.4-1.1-1.6-1.2-2c-0.1-0.6,0-1.2,0-1.7c0-0.3,0.1-0.6,0.2-0.9c0.1-0.3,0.2-0.3,0.1-0.3C79.6,60.8,80.6,59.4,79.8,59.5z"/>
		<path class="st4" d="M57.3,60.4c-0.6,1.8-0.7,4.4-0.1,6.2c0.6,2,3.7-1.5,4.1-2.2c0.5-1-0.8-0.4-1.1,0.1c-0.1,0.2-1.2,1.6-1.6,1.3
			c-0.3-0.2-0.3-1.2-0.3-1.6c-0.1-1.4-0.1-3,0.3-4.3C58.9,59,57.5,59.9,57.3,60.4L57.3,60.4z"/>
		<path class="st4" d="M53,65.2c0.6-0.2,1.8-0.8,2.1,0.1c0.3,0.8-0.5,0.5-0.9,0.1c-1-1.3-0.4-4.1,0-5.5c0.3-1-1.2-0.1-1.3,0.4
			c-0.4,1.5-1.4,7.9,1.9,6.8c1-0.4,1.8-1.5,1.8-2.5c-0.1-1.6-2.2-1.1-3.1-0.7c-0.4,0.2-0.7,0.5-0.9,0.9C52.4,65,52.6,65.3,53,65.2
			L53,65.2z"/>
		<g>
			<path class="st4" d="M87.4,65.6c-0.7,0.7-1-2.1-1-2.3c-0.1-1.2,0-2.4,0-3.6c0-0.8-1.3,0.2-1.3,0.7c-0.1,1-0.1,2.1-0.2,3.1
				c0,0.5-0.1,1.1-0.2,1.6c-0.1,0.6-0.1,0.8-0.6,0.4c-1.3-0.9-0.6-4.3-0.2-5.5c0.2-0.9-1.1-0.1-1.3,0.4c-0.3,1.2-1.4,6.9,1.2,6.6
				c3-0.3,2.5-5.4,2.6-7.4c-0.4,0.2-0.9,0.5-1.3,0.7c-0.1,1.8-0.3,3.8,0.3,5.6c0.5,1.5,1.8,1,2.7,0.1C88.7,65.5,88.1,64.9,87.4,65.6
				L87.4,65.6z"/>
			<path class="st4" d="M87.7,65.4c-1.2,0.7-3.4,2.4-2.5,4c0.3,0.6,1.6-0.5,1.3-1s-0.1-0.9,0.3-1.3c0.2-0.2,0.4-0.3,0.6-0.4l0.1-0.1
				c-0.1,0.1-0.1,0.1,0,0c0,0,0.1,0,0.1-0.1c0.3-0.2,0.7-0.5,0.7-0.9C88.4,65.2,87.9,65.2,87.7,65.4L87.7,65.4z"/>
		</g>
		<path class="st4" d="M79,60.7c1.3,1.5,2.9,0.9,4.3,0c0.7-0.4,0.7-1.5-0.3-0.9c-1.1,0.7-2,0.8-2.9-0.3C79.8,59.1,78.6,60.3,79,60.7
			L79,60.7z"/>
	</g>
</g>
</svg>
